<mxfile host="app.diagrams.net" modified="2024-03-06T17:17:02.509Z" agent="Mozilla/5.0 (Windows NT 10.0; Win64; x64) AppleWebKit/537.36 (KHTML, like Gecko) Chrome/122.0.0.0 Safari/537.36" etag="hQ_qI-Vh-Wni735GcGK2" version="24.0.2" type="device">
  <diagram name="Page-1" id="42789a77-a242-8287-6e28-9cd8cfd52e62">
    <mxGraphModel dx="880" dy="468" grid="1" gridSize="10" guides="1" tooltips="1" connect="1" arrows="1" fold="1" page="1" pageScale="1" pageWidth="1100" pageHeight="850" background="none" math="0" shadow="0">
      <root>
        <mxCell id="0" />
        <mxCell id="1" parent="0" />
        <mxCell id="HTNeyGAQeljvGoze_Cvn-21" style="edgeStyle=orthogonalEdgeStyle;rounded=1;orthogonalLoop=1;jettySize=auto;html=1;exitX=1;exitY=0.3333333333333333;exitDx=0;exitDy=0;exitPerimeter=0;entryX=0.5;entryY=0;entryDx=0;entryDy=0;" edge="1" parent="1" source="HTNeyGAQeljvGoze_Cvn-9" target="HTNeyGAQeljvGoze_Cvn-20">
          <mxGeometry relative="1" as="geometry" />
        </mxCell>
        <mxCell id="HTNeyGAQeljvGoze_Cvn-26" style="edgeStyle=orthogonalEdgeStyle;rounded=1;orthogonalLoop=1;jettySize=auto;html=1;entryX=0;entryY=0.5;entryDx=0;entryDy=0;" edge="1" parent="1" source="HTNeyGAQeljvGoze_Cvn-9" target="HTNeyGAQeljvGoze_Cvn-24">
          <mxGeometry relative="1" as="geometry">
            <Array as="points">
              <mxPoint x="215" y="30" />
            </Array>
          </mxGeometry>
        </mxCell>
        <mxCell id="HTNeyGAQeljvGoze_Cvn-41" style="edgeStyle=orthogonalEdgeStyle;rounded=1;orthogonalLoop=1;jettySize=auto;html=1;" edge="1" parent="1" source="HTNeyGAQeljvGoze_Cvn-9" target="HTNeyGAQeljvGoze_Cvn-40">
          <mxGeometry relative="1" as="geometry" />
        </mxCell>
        <mxCell id="HTNeyGAQeljvGoze_Cvn-9" value="Aluno&lt;div&gt;&lt;br&gt;&lt;/div&gt;" style="shape=umlActor;verticalLabelPosition=bottom;verticalAlign=top;html=1;outlineConnect=0;labelBackgroundColor=none;rounded=1;" vertex="1" parent="1">
          <mxGeometry x="200" y="100" width="30" height="60" as="geometry" />
        </mxCell>
        <mxCell id="HTNeyGAQeljvGoze_Cvn-16" value="" style="edgeStyle=orthogonalEdgeStyle;rounded=1;orthogonalLoop=1;jettySize=auto;html=1;" edge="1" parent="1" source="HTNeyGAQeljvGoze_Cvn-10" target="HTNeyGAQeljvGoze_Cvn-15">
          <mxGeometry relative="1" as="geometry" />
        </mxCell>
        <mxCell id="HTNeyGAQeljvGoze_Cvn-10" value="Atendente&lt;div&gt;&lt;div&gt;&lt;br&gt;&lt;/div&gt;&lt;div&gt;&lt;br&gt;&lt;/div&gt;&lt;/div&gt;" style="shape=umlActor;verticalLabelPosition=bottom;verticalAlign=top;html=1;outlineConnect=0;labelBackgroundColor=none;rounded=1;" vertex="1" parent="1">
          <mxGeometry x="760" y="170" width="30" height="60" as="geometry" />
        </mxCell>
        <mxCell id="HTNeyGAQeljvGoze_Cvn-22" style="edgeStyle=orthogonalEdgeStyle;rounded=1;orthogonalLoop=1;jettySize=auto;html=1;exitX=1;exitY=0.3333333333333333;exitDx=0;exitDy=0;exitPerimeter=0;" edge="1" parent="1" source="HTNeyGAQeljvGoze_Cvn-11" target="HTNeyGAQeljvGoze_Cvn-20">
          <mxGeometry relative="1" as="geometry" />
        </mxCell>
        <mxCell id="HTNeyGAQeljvGoze_Cvn-30" style="edgeStyle=orthogonalEdgeStyle;rounded=1;orthogonalLoop=1;jettySize=auto;html=1;entryX=0;entryY=0.5;entryDx=0;entryDy=0;" edge="1" parent="1" source="HTNeyGAQeljvGoze_Cvn-11" target="HTNeyGAQeljvGoze_Cvn-28">
          <mxGeometry relative="1" as="geometry">
            <Array as="points">
              <mxPoint x="215" y="360" />
            </Array>
          </mxGeometry>
        </mxCell>
        <mxCell id="HTNeyGAQeljvGoze_Cvn-45" style="edgeStyle=orthogonalEdgeStyle;rounded=1;orthogonalLoop=1;jettySize=auto;html=1;entryX=0;entryY=0.5;entryDx=0;entryDy=0;" edge="1" parent="1" source="HTNeyGAQeljvGoze_Cvn-11" target="HTNeyGAQeljvGoze_Cvn-39">
          <mxGeometry relative="1" as="geometry" />
        </mxCell>
        <mxCell id="HTNeyGAQeljvGoze_Cvn-11" value="Professor" style="shape=umlActor;verticalLabelPosition=bottom;verticalAlign=top;html=1;outlineConnect=0;labelBackgroundColor=none;rounded=1;" vertex="1" parent="1">
          <mxGeometry x="200" y="240" width="30" height="60" as="geometry" />
        </mxCell>
        <mxCell id="HTNeyGAQeljvGoze_Cvn-34" style="rounded=1;orthogonalLoop=1;jettySize=auto;html=1;entryX=1;entryY=0.5;entryDx=0;entryDy=0;" edge="1" parent="1" source="HTNeyGAQeljvGoze_Cvn-15" target="HTNeyGAQeljvGoze_Cvn-32">
          <mxGeometry relative="1" as="geometry" />
        </mxCell>
        <mxCell id="HTNeyGAQeljvGoze_Cvn-15" value="Cadastro do livro" style="ellipse;whiteSpace=wrap;html=1;rounded=1;" vertex="1" parent="1">
          <mxGeometry x="620" y="170" width="90" height="60" as="geometry" />
        </mxCell>
        <mxCell id="HTNeyGAQeljvGoze_Cvn-33" style="edgeStyle=orthogonalEdgeStyle;rounded=1;orthogonalLoop=1;jettySize=auto;html=1;entryX=0;entryY=0.5;entryDx=0;entryDy=0;" edge="1" parent="1" source="HTNeyGAQeljvGoze_Cvn-20" target="HTNeyGAQeljvGoze_Cvn-32">
          <mxGeometry relative="1" as="geometry" />
        </mxCell>
        <mxCell id="HTNeyGAQeljvGoze_Cvn-20" value="Consultar o livro" style="ellipse;whiteSpace=wrap;html=1;rounded=1;" vertex="1" parent="1">
          <mxGeometry x="230" y="170" width="90" height="60" as="geometry" />
        </mxCell>
        <mxCell id="HTNeyGAQeljvGoze_Cvn-27" style="edgeStyle=orthogonalEdgeStyle;rounded=1;orthogonalLoop=1;jettySize=auto;html=1;entryX=0;entryY=0.5;entryDx=0;entryDy=0;" edge="1" parent="1" source="HTNeyGAQeljvGoze_Cvn-24" target="HTNeyGAQeljvGoze_Cvn-25">
          <mxGeometry relative="1" as="geometry" />
        </mxCell>
        <mxCell id="HTNeyGAQeljvGoze_Cvn-24" value="Empréstimo de livros" style="ellipse;whiteSpace=wrap;html=1;rounded=1;" vertex="1" parent="1">
          <mxGeometry x="280" width="90" height="60" as="geometry" />
        </mxCell>
        <mxCell id="HTNeyGAQeljvGoze_Cvn-35" style="rounded=1;orthogonalLoop=1;jettySize=auto;html=1;entryX=0.5;entryY=0;entryDx=0;entryDy=0;elbow=vertical;edgeStyle=orthogonalEdgeStyle;curved=1;" edge="1" parent="1" source="HTNeyGAQeljvGoze_Cvn-25" target="HTNeyGAQeljvGoze_Cvn-32">
          <mxGeometry relative="1" as="geometry" />
        </mxCell>
        <mxCell id="HTNeyGAQeljvGoze_Cvn-25" value="devolução do livro" style="ellipse;whiteSpace=wrap;html=1;rounded=1;" vertex="1" parent="1">
          <mxGeometry x="415" width="90" height="60" as="geometry" />
        </mxCell>
        <mxCell id="HTNeyGAQeljvGoze_Cvn-31" style="edgeStyle=orthogonalEdgeStyle;rounded=1;orthogonalLoop=1;jettySize=auto;html=1;entryX=0;entryY=0.5;entryDx=0;entryDy=0;" edge="1" parent="1" source="HTNeyGAQeljvGoze_Cvn-28" target="HTNeyGAQeljvGoze_Cvn-29">
          <mxGeometry relative="1" as="geometry" />
        </mxCell>
        <mxCell id="HTNeyGAQeljvGoze_Cvn-28" value="Empréstimo de livros" style="ellipse;whiteSpace=wrap;html=1;rounded=1;" vertex="1" parent="1">
          <mxGeometry x="280" y="330" width="90" height="60" as="geometry" />
        </mxCell>
        <mxCell id="HTNeyGAQeljvGoze_Cvn-36" style="edgeStyle=orthogonalEdgeStyle;rounded=1;orthogonalLoop=1;jettySize=auto;html=1;entryX=0.5;entryY=1;entryDx=0;entryDy=0;curved=1;" edge="1" parent="1" source="HTNeyGAQeljvGoze_Cvn-29" target="HTNeyGAQeljvGoze_Cvn-32">
          <mxGeometry relative="1" as="geometry" />
        </mxCell>
        <mxCell id="HTNeyGAQeljvGoze_Cvn-29" value="devolução do livro" style="ellipse;whiteSpace=wrap;html=1;rounded=1;" vertex="1" parent="1">
          <mxGeometry x="415" y="330" width="90" height="60" as="geometry" />
        </mxCell>
        <mxCell id="HTNeyGAQeljvGoze_Cvn-32" value="Livros disponíveis para empréstimo" style="ellipse;whiteSpace=wrap;html=1;rounded=1;" vertex="1" parent="1">
          <mxGeometry x="440" y="170" width="110" height="60" as="geometry" />
        </mxCell>
        <mxCell id="HTNeyGAQeljvGoze_Cvn-43" style="rounded=1;orthogonalLoop=1;jettySize=auto;html=1;entryX=0;entryY=1;entryDx=0;entryDy=0;" edge="1" parent="1" source="HTNeyGAQeljvGoze_Cvn-39" target="HTNeyGAQeljvGoze_Cvn-32">
          <mxGeometry relative="1" as="geometry" />
        </mxCell>
        <mxCell id="HTNeyGAQeljvGoze_Cvn-39" value="Reservar livro" style="ellipse;whiteSpace=wrap;html=1;rounded=1;" vertex="1" parent="1">
          <mxGeometry x="325" y="240" width="90" height="60" as="geometry" />
        </mxCell>
        <mxCell id="HTNeyGAQeljvGoze_Cvn-40" value="Reservar livro" style="ellipse;whiteSpace=wrap;html=1;rounded=1;" vertex="1" parent="1">
          <mxGeometry x="325" y="100" width="90" height="60" as="geometry" />
        </mxCell>
        <mxCell id="HTNeyGAQeljvGoze_Cvn-42" style="rounded=1;orthogonalLoop=1;jettySize=auto;html=1;" edge="1" parent="1" source="HTNeyGAQeljvGoze_Cvn-40" target="HTNeyGAQeljvGoze_Cvn-32">
          <mxGeometry relative="1" as="geometry" />
        </mxCell>
      </root>
    </mxGraphModel>
  </diagram>
</mxfile>
